HIERARCHY
ROOT joint_Root
{
	OFFSET 0.0 0.0 0.0
	CHANNELS 6 Xposition Yposition Zposition Zrotation Xrotation Yrotation 
	JOINT Hips
	{
		OFFSET 4.5925 91.4895 -427.239
		CHANNELS 6 Xposition Yposition Zposition Zrotation Xrotation Yrotation 
		JOINT Spine
		{
			OFFSET 15.7357 0.0 0.0
			CHANNELS 6 Xposition Yposition Zposition Zrotation Xrotation Yrotation 
			JOINT Chest
			{
				OFFSET 8.98455 -0.406207 0.0
				CHANNELS 6 Xposition Yposition Zposition Zrotation Xrotation Yrotation 
				JOINT Neck
				{
					OFFSET 16.3773 0.0 0.0
					CHANNELS 6 Xposition Yposition Zposition Zrotation Xrotation Yrotation 
					JOINT Head
					{
						OFFSET 6.45672 0.0 0.0
						CHANNELS 6 Xposition Yposition Zposition Zrotation Xrotation Yrotation 
						End Site
						{
							OFFSET 0.0 0.0 0.0
						}
					}
				}
				JOINT Shoulder_L
				{
					OFFSET 12.9942 -0.242716 4.98039
					CHANNELS 6 Xposition Yposition Zposition Zrotation Xrotation Yrotation 
					JOINT UpperArm_L
					{
						OFFSET 5.34809 0.0 0.0
						CHANNELS 6 Xposition Yposition Zposition Zrotation Xrotation Yrotation 
						JOINT LowerArm_L
						{
							OFFSET 24.3286 1.87007e-05 0.0
							CHANNELS 6 Xposition Yposition Zposition Zrotation Xrotation Yrotation 
							JOINT Hand_L
							{
								OFFSET 22.2916 0.0 0.0
								CHANNELS 6 Xposition Yposition Zposition Zrotation Xrotation Yrotation 
								End Site
								{
									OFFSET 0.0 0.0 0.0
								}
							}
						}
					}
				}
				JOINT Shoulder_R
				{
					OFFSET 12.9945 -0.242716 -4.98039
					CHANNELS 6 Xposition Yposition Zposition Zrotation Xrotation Yrotation 
					JOINT UpperArm_R
					{
						OFFSET -5.34813 0.0 0.0
						CHANNELS 6 Xposition Yposition Zposition Zrotation Xrotation Yrotation 
						JOINT LowerArm_R
						{
							OFFSET -24.3289 0.000322201 0.0
							CHANNELS 6 Xposition Yposition Zposition Zrotation Xrotation Yrotation 
							JOINT Hand_R
							{
								OFFSET -22.2915 -0.000108084 0.0
								CHANNELS 6 Xposition Yposition Zposition Zrotation Xrotation Yrotation 
								End Site
								{
									OFFSET 0.0 0.0 0.0
								}
							}
						}
					}
				}
			}
		}
		JOINT UpperLeg_L
		{
			OFFSET -2.19248 -6.46944 0.0
			CHANNELS 6 Xposition Yposition Zposition Zrotation Xrotation Yrotation 
			JOINT LowerLeg_L
			{
				OFFSET 39.0811 0.0 -1.23785e-05
				CHANNELS 6 Xposition Yposition Zposition Zrotation Xrotation Yrotation 
				JOINT Foot_L
				{
					OFFSET 40.9854 0.0 -1.26872e-05
					CHANNELS 6 Xposition Yposition Zposition Zrotation Xrotation Yrotation 
					JOINT Toes_L
					{
						OFFSET 11.7543 0.0 0.0
						CHANNELS 6 Xposition Yposition Zposition Zrotation Xrotation Yrotation 
						End Site
						{
							OFFSET 0.0 0.0 0.0
						}
					}
				}
			}
		}
		JOINT UpperLeg_R
		{
			OFFSET -2.19251 6.46944 0.0
			CHANNELS 6 Xposition Yposition Zposition Zrotation Xrotation Yrotation 
			JOINT LowerLeg_R
			{
				OFFSET -39.0811 -0.00228153 -0.0401928
				CHANNELS 6 Xposition Yposition Zposition Zrotation Xrotation Yrotation 
				JOINT Foot_R
				{
					OFFSET -40.9854 0.0 0.0
					CHANNELS 6 Xposition Yposition Zposition Zrotation Xrotation Yrotation 
					JOINT Toes_R
					{
						OFFSET -11.7543 0.0 0.0
						CHANNELS 6 Xposition Yposition Zposition Zrotation Xrotation Yrotation 
						End Site
						{
							OFFSET 0.0 0.0 0.0
						}
					}
				}
			}
		}
	}
}
MOTION
Frames:	6
Frame Time:	0.0333333
0.000000 0.000000 0.000000 0.000000 0.000000 -0.000000 129.926000 88.242900 143.681000 97.325000 -13.876600 10.309600 15.735700 0.000005 -0.000001 74.627600 83.815200 -73.920400 8.984550 -0.406207 -0.000000 4.187360 -3.296050 1.533630 16.377300 -0.000001 -0.000001 3.121970 -17.896800 6.162770 6.456720 -0.000001 -0.000000 -0.656259 -23.117800 11.105300 12.994200 -0.242716 4.980390 -90.944300 3.508130 -74.924700 5.348090 -0.000007 -0.000001 -54.842500 39.960200 -27.630500 24.328600 0.000019 0.000005 12.781600 12.238100 -46.953500 22.291600 -0.000001 0.000005 14.998700 5.339040 -1.067560 12.994500 -0.242716 -4.980390 87.789000 11.793200 -79.302400 -5.348130 -0.000001 -0.000004 -60.767800 19.957300 -7.295760 -24.328900 0.000322 -0.000009 0.619807 3.289630 -10.713300 -22.291500 -0.000108 -0.000004 15.307000 5.293390 0.259339 -2.192480 -6.469440 -0.000000 -174.174000 -7.579450 -10.032300 39.081100 -0.000007 -0.000012 -0.003162 0.001010 72.394600 40.985400 -0.000006 -0.000013 -0.424188 -4.895170 -49.653900 11.754300 -0.000000 0.000003 -0.007273 -0.081999 -19.915200 -2.192510 6.469440 -0.000001 -175.914000 18.016700 177.048000 -39.081100 -0.002282 -0.040193 0.118178 -0.154331 36.665700 -40.985400 0.000008 0.000006 21.428000 -1.242430 -73.188300 -11.754300 -0.000006 -0.000006 -1.359590 -1.541720 -21.426300
0.000000 0.000000 0.000000 0.000000 0.000000 -0.000000 128.477000 88.953200 145.998000 98.158200 -20.626600 10.163800 15.735700 0.000005 -0.000001 82.259600 84.225500 -81.612800 8.984550 -0.406207 -0.000000 3.688210 -1.576460 1.342960 16.377300 -0.000001 -0.000001 3.257770 -17.025200 6.591180 6.456720 -0.000001 -0.000000 -0.500547 -22.891700 11.029000 12.994200 -0.242716 4.980390 -91.056300 3.763090 -74.309100 5.348090 -0.000007 -0.000001 -54.255400 46.059900 -23.012400 24.328600 0.000019 0.000005 14.708800 17.919800 -40.479700 22.291600 -0.000001 0.000005 8.233320 5.372190 -2.085140 12.994500 -0.242716 -4.980390 88.112100 11.564900 -80.663500 -5.348130 -0.000001 -0.000004 -61.949400 25.452200 -12.434600 -24.328900 0.000322 -0.000009 0.194969 0.697607 -15.714800 -22.291500 -0.000108 -0.000004 15.722300 5.331740 -0.839188 -2.192480 -6.469440 -0.000000 -175.859000 -6.980710 -13.011200 39.081100 -0.000007 -0.000012 -0.031897 0.011227 70.618200 40.985400 -0.000006 -0.000013 3.309820 -7.796450 -52.704600 11.754300 -0.000000 0.000003 -0.007278 -0.082042 -19.916900 -2.192510 6.469440 -0.000001 -176.604000 14.841300 179.951000 -39.081100 -0.002282 -0.040193 0.111645 -0.161438 33.868100 -40.985400 0.000008 0.000006 22.467300 2.631780 -72.116600 -11.754300 -0.000006 -0.000006 -1.214690 -1.354390 -22.646100
0.000000 0.000000 0.000000 0.000000 0.000000 -0.000000 127.045000 89.601200 148.143000 99.047000 -27.524900 9.886940 15.735700 0.000005 -0.000001 89.581800 84.551300 -89.017400 8.984550 -0.406207 -0.000000 3.131740 -0.102275 1.130310 16.377300 -0.000001 -0.000001 3.103220 -15.988700 6.973130 6.456720 -0.000001 -0.000000 -0.652293 -22.424700 10.967100 12.994200 -0.242716 4.980390 -91.159400 3.967200 -73.695300 5.348090 -0.000007 -0.000001 -57.108000 51.675300 -16.035800 24.328600 0.000019 0.000005 15.131800 23.995500 -33.629900 22.291600 -0.000001 0.000005 2.918200 5.405400 -3.123570 12.994500 -0.242716 -4.980390 88.512800 10.992500 -82.247000 -5.348130 -0.000001 -0.000004 -62.571800 31.641100 -17.863200 -24.328900 0.000322 -0.000009 -0.175460 -0.451237 -21.082800 -22.291500 -0.000108 -0.000004 15.807300 5.371690 -2.038890 -2.192480 -6.469440 -0.000000 -176.977000 -5.310510 -15.502300 39.081100 -0.000007 -0.000012 -0.022548 0.009899 66.310200 40.985400 -0.000006 -0.000013 4.855470 -7.792620 -56.380100 11.754300 -0.000000 0.000003 -0.006909 -0.078887 -19.788200 -2.192510 6.469440 -0.000001 -177.354000 11.577400 -177.751000 -39.081100 -0.002282 -0.040193 0.093925 -0.149097 31.292500 -40.985400 0.000008 0.000006 23.351800 6.480780 -71.447300 -11.754300 -0.000006 -0.000006 -0.019981 -0.167183 -23.403500
0.000000 0.000000 0.000000 0.000000 0.000000 -0.000000 125.686000 90.032400 150.287000 99.772300 -34.428900 9.573340 15.735700 0.000005 -0.000001 98.237500 84.713900 -97.725200 8.984550 -0.406207 -0.000000 2.691520 1.490750 0.988575 16.377300 -0.000001 -0.000001 2.463850 -15.185800 7.225280 6.456720 -0.000001 -0.000000 -0.940992 -21.901400 11.086600 12.994200 -0.242716 4.980390 -91.178100 3.954240 -73.394800 5.348090 -0.000007 -0.000001 -65.226600 53.268300 -5.341480 24.328600 0.000019 0.000005 13.590500 29.435600 -26.198500 22.291600 -0.000001 0.000005 -0.335992 5.396530 -2.818730 12.994500 -0.242716 -4.980390 88.801500 10.244000 -83.291400 -5.348130 -0.000001 -0.000004 -61.606000 38.553300 -24.102100 -24.328900 0.000322 -0.000009 -0.333735 -0.656037 -26.868400 -22.291500 -0.000108 -0.000004 15.816600 5.398100 -2.874760 -2.192480 -6.469440 -0.000000 -177.248000 -3.472050 -17.314800 39.081100 -0.000007 -0.000012 0.008558 -0.004956 59.901800 40.985400 -0.000006 -0.000013 5.174670 -6.967450 -59.713800 11.754300 -0.000000 0.000003 -0.006108 -0.071818 -19.499700 -2.192510 6.469440 -0.000001 -178.120000 8.313240 -175.917000 -39.081100 -0.002282 -0.040193 0.082470 -0.141520 29.222700 -40.985400 0.000008 0.000006 24.182700 10.216400 -71.176400 -11.754300 -0.000006 -0.000006 -0.026859 -0.202691 -24.869800
0.000000 0.000000 0.000000 0.000000 0.000000 -0.000000 124.353000 90.276100 152.489000 100.465000 -40.906700 9.135570 15.735700 0.000005 -0.000001 105.991000 84.838700 -105.492000 8.984550 -0.406207 -0.000000 2.147650 2.817240 0.944344 16.377300 -0.000001 -0.000001 1.658500 -14.382100 7.261410 6.456720 -0.000001 -0.000000 -1.479700 -21.433200 11.230800 12.994200 -0.242716 4.980390 -91.120600 3.631860 -72.839400 5.348090 -0.000007 -0.000001 -74.566000 47.337200 5.444480 24.328600 0.000019 0.000005 9.856110 33.632300 -17.417700 22.291600 -0.000001 0.000005 -0.486203 5.341870 -1.146850 12.994500 -0.242716 -4.980390 89.048800 9.363170 -84.173100 -5.348130 -0.000001 -0.000004 -58.456700 45.362700 -31.245700 -24.328900 0.000322 -0.000009 0.059712 0.090657 -33.258900 -22.291500 -0.000108 -0.000004 16.334100 5.409900 -3.261170 -2.192480 -6.469440 -0.000000 -176.979000 -2.455870 -18.905100 39.081100 -0.000007 -0.000012 0.032591 -0.025457 52.001400 40.985400 -0.000006 -0.000013 4.192920 -5.754620 -61.074600 11.754300 -0.000000 0.000003 -0.005720 -0.068276 -19.355300 -2.192510 6.469440 -0.000001 -179.113000 5.454820 -174.457000 -39.081100 -0.002282 -0.040193 0.069465 -0.127386 27.445100 -40.985400 0.000008 0.000006 25.117200 13.873300 -71.451500 -11.754300 -0.000006 -0.000006 -0.033444 -0.232836 -26.120700
0.000000 0.000000 0.000000 0.000000 0.000000 -0.000000 122.963000 90.288900 154.861000 101.089000 -46.134100 8.737780 15.735700 0.000005 -0.000001 111.678000 84.914100 -111.209000 8.984550 -0.406207 -0.000000 1.675030 3.730260 0.882462 16.377300 -0.000001 -0.000001 0.719560 -13.835900 7.149700 6.456720 -0.000001 -0.000000 -2.057840 -21.316300 11.438200 12.994200 -0.242716 4.980390 -90.881200 2.746160 -72.200300 5.348090 -0.000007 -0.000001 -79.009700 34.615100 11.326600 24.328600 0.000019 0.000005 4.477720 35.134000 -7.747960 22.291600 -0.000001 0.000005 2.670140 5.242550 1.590520 12.994500 -0.242716 -4.980390 89.205100 8.771020 -84.801200 -5.348130 -0.000001 -0.000004 -54.374000 50.189300 -38.042500 -24.328900 0.000322 -0.000009 1.951360 2.285500 -40.478900 -22.291500 -0.000108 -0.000004 16.468500 5.422110 -3.669990 -2.192480 -6.469440 -0.000000 -176.805000 -2.279210 -20.557700 39.081100 -0.000007 -0.000012 0.034437 -0.035921 43.789400 40.985400 -0.000006 -0.000013 2.497800 -3.944930 -60.871500 11.754300 -0.000000 0.000003 -0.004886 -0.060366 -19.032900 -2.192510 6.469440 -0.000001 179.731000 3.221530 -173.116000 -39.081100 -0.002282 -0.040193 0.060653 -0.117629 25.988800 -40.985400 0.000008 0.000006 25.811700 16.821500 -71.960700 -11.754300 -0.000006 -0.000006 -0.040829 -0.263397 -27.395300
